<?xml version="1.0" encoding="utf-8"?>
<!-- Generator: Adobe Illustrator 18.1.1, SVG Export Plug-In . SVG Version: 6.00 Build 0)  -->
<svg version="1.1" id="Layer_1" xmlns="http://www.w3.org/2000/svg" xmlns:xlink="http://www.w3.org/1999/xlink" x="0px" y="0px"
	 viewBox="0 0 284 77.5" enable-background="new 0 0 284 77.5" xml:space="preserve">
<g>
	<linearGradient id="SVGID_1_" gradientUnits="userSpaceOnUse" x1="133.5779" y1="31.6789" x2="164.3431" y2="31.6789">
		<stop  offset="0" style="stop-color:#1E8BC3"/>
		<stop  offset="1" style="stop-color:#52B3D9"/>
	</linearGradient>
	<path fill="url(#SVGID_1_)" d="M163.2,39.6c-1.2-2.8-3.3-5.3-6.3-7.3c-2.3-1.6-4.3-2.9-6-4.2c3-2.4,4.9-4.3,6.2-6.1
		c2.5-3.5,2.5-6.5,2.3-10.1c-0.2-3.4-2.1-6-5.5-7.4c-2.4-1-4.8-1-4.9-1c-0.1,0-2.5,0-4.9,1c-3.4,1.4-5.3,3.9-5.5,7.4
		c-0.2,3.6-0.2,6.6,2.3,10.1c1.3,1.8,3.3,3.8,6.2,6.1c-1.7,1.3-3.7,2.7-6,4.2c-3,2-5.1,4.4-6.3,7.3c-1.1,2.5-1.4,5.2-0.9,8
		c0.9,5.6,4.9,10.7,9.2,11.9c0.7,0.2,1.3,0.3,1.9,0.3c1.5,0,2.9-0.5,4-1.5c1.7,1.4,3.7,1.9,6,1.2c4.4-1.2,8.3-6.3,9.2-11.9
		C164.6,44.9,164.3,42.1,163.2,39.6z M142.7,20.7c-1.5-2.1-2.1-3.9-1.9-8.6c0.2-2.5,1.5-4.3,4-5.3c2-0.8,4.1-0.9,4.1-0.9
		c0,0,2.1,0,4.1,0.9c2.5,1,3.9,2.8,4,5.3c0.2,3.7,0,6-1.9,8.6c-1.2,1.7-3.2,3.7-6.2,6C145.9,24.3,144,22.4,142.7,20.7z M146.9,48.5
		c0.2-1.8,1.3-3.1,2-3.8c0.7,0.7,1.8,2,2,3.8c0.3,1.9-0.4,4-2,6.2C147.4,52.6,146.7,50.5,146.9,48.5z M161.9,47.3
		c-0.7,4.7-4.1,9.1-7.6,10c-1.4,0.4-2.7,0.2-3.8-0.7c2.2-2.9,3.1-5.7,2.8-8.4c-0.5-3.8-3.5-5.8-3.7-5.9c-0.2-0.1-0.4-0.2-0.6-0.2
		c-0.2,0-0.5,0-0.7,0.2c-0.1,0.1-3.1,2.1-3.7,5.9c-0.4,2.7,0.5,5.5,2.8,8.4c-1.1,0.9-2.3,1.1-3.8,0.7c-3.5-1-6.8-5.4-7.6-10
		c-0.5-3-0.3-8.6,6.2-13c2.6-1.7,4.8-3.3,6.7-4.7c1.9,1.4,4.1,2.9,6.7,4.7C162.2,38.7,162.3,44.3,161.9,47.3z"/>
	<linearGradient id="SVGID_2_" gradientUnits="userSpaceOnUse" x1="119.1367" y1="63.2702" x2="178.6414" y2="63.2702">
		<stop  offset="0" style="stop-color:#1E8BC3"/>
		<stop  offset="1" style="stop-color:#52B3D9"/>
	</linearGradient>
	<path fill="url(#SVGID_2_)" d="M175.9,54.6c-0.7-0.2-1.5-0.3-2.3-0.3c-7.8,0-21.4,10-24.7,12.5c-3.3-2.5-16.9-12.5-24.7-12.5
		c-0.8,0-1.6,0.1-2.3,0.3c-2,0.7-3,2.5-2.6,4.8c0.4,2.7,2.7,6,6,8.5c3.8,2.9,8.4,4.5,13,4.5c0,0,0,0,0,0c3.6,0,7.2-0.9,10.6-2.8
		c3.5,1.8,7,2.8,10.6,2.8c4.6,0,9.3-1.6,13-4.5c3.3-2.5,5.6-5.7,6-8.5C178.9,57,177.9,55.3,175.9,54.6z M138.3,70
		C138.3,70,138.3,70,138.3,70c-4.1,0-8.2-1.4-11.6-4c-2.8-2.1-4.8-4.9-5.1-7c-0.3-1.7,0.7-2.1,1.1-2.2c0.4-0.1,1-0.2,1.6-0.2
		c6.5,0,18.4,8.4,22.6,11.5C144,69.3,141.1,70,138.3,70z M176.3,59c-0.3,2.1-2.4,4.9-5.1,7c-3.4,2.6-7.5,4-11.6,4
		c-2.8,0-5.7-0.7-8.5-2c1.6-1.2,4.4-3.2,7.6-5.2c6.5-4.1,11.7-6.2,14.9-6.2c0.6,0,1.1,0.1,1.6,0.2C175.6,56.9,176.6,57.2,176.3,59z"
		/>
</g>
<linearGradient id="SVGID_3_" gradientUnits="userSpaceOnUse" x1="148.9604" y1="29.4807" x2="152.4189" y2="29.4807">
	<stop  offset="0" style="stop-color:#1E8BC3"/>
	<stop  offset="1" style="stop-color:#52B3D9"/>
</linearGradient>
<polygon fill="url(#SVGID_3_)" points="149,29.6 150.9,28.1 152.4,29.3 150.6,30.8 "/>
<linearGradient id="SVGID_4_" gradientUnits="userSpaceOnUse" x1="148.9604" y1="69.184" x2="152.9261" y2="69.184">
	<stop  offset="0" style="stop-color:#1E8BC3"/>
	<stop  offset="1" style="stop-color:#52B3D9"/>
</linearGradient>
<polyline fill="url(#SVGID_4_)" points="150.6,70.3 149,69.5 151.1,68 152.9,68.8 "/>
<linearGradient id="SVGID_5_" gradientUnits="userSpaceOnUse" x1="148.9604" y1="57.9768" x2="152.0449" y2="57.9768">
	<stop  offset="0" style="stop-color:#1E8BC3"/>
	<stop  offset="1" style="stop-color:#52B3D9"/>
</linearGradient>
<path fill="url(#SVGID_5_)" d="M152,57.4c-0.5-0.1-1.1-0.4-1.5-0.8c-0.9,1.3-1.6,1.7-1.6,1.7c0.6,0.5,1.2,0.8,1.8,1.1
	C151.3,58.8,151.9,57.9,152,57.4z"/>
<g>
	<path fill="#1E8BC3" d="M19.3,24.8l-1.9,8.8h0.2c3.2,0,5.7-3.4,5.7-6.4c0-2.3-1.5-4.3-5.2-4.3c-4.6,0-9.9,3.1-9.9,9.6
		c0,2,0.5,2.3,0.6,2.7c-2.6,0-4.2-1-4.2-3.6c0-5.5,6.9-10.5,14.4-10.5c5.8,0,8.4,3,8.4,6.3c0,2.3-1.4,4.8-4,6.3
		c3.4,0.7,4.7,3.4,4.7,6.4c0,3.8-2.1,11.4-8.7,11.4c-1.7,0-3.9-0.5-3.9-2.9c0-0.6,0.2-1.4,0.5-2.3c1,1,1.7,1.4,2.7,1.4
		c2.9,0,3.9-4.1,3.9-7.1c0-2.8-0.9-5-3.8-5c-0.3,0-1.1,0-1.8,0.1l-3.2,15.2H8.1l5.4-25.2L19.3,24.8z"/>
	<path fill="#1E8BC3" d="M48.5,30.9l-2.8,13.5c-0.1,0.5-0.2,0.9-0.2,1.3c0,1.1,0.5,1.7,1.6,1.7c1.5,0,2.6-1.7,3.2-3.7H52
		c-2.3,6.5-5.8,7.3-8,7.3c-2.2,0-3.6-1.3-3.9-3.6c-1.2,1.8-3.1,3.6-5.9,3.6c-2.7,0-5.3-1.7-5.3-6.4c0-5.3,3.3-13.9,10.2-13.9
		c2.3,0,3.2,0.9,3.2,2V33l0.4-2.1H48.5z M34.9,44c0,3,1.3,3.1,2,3.1c1.1,0,2.8-1.2,3.3-3.5l1.9-8.9c0-0.5-0.4-1.5-1.6-1.5
		C37,33.2,34.9,40.3,34.9,44z"/>
	<path fill="#1E8BC3" d="M60.4,23l-4.6,21.4c-0.1,0.5-0.2,0.9-0.2,1.3c0,1.1,0.5,1.5,1.6,1.5c1.5,0,3-1.5,3.6-3.5h1.7
		c-2.3,6.5-6.2,7.3-8.3,7.3c-2.4,0-4.2-1.4-4.2-4.7c0-0.8,0.1-1.6,0.3-2.6l4.2-19.8L60.4,23z"/>
	<path fill="#1E8BC3" d="M79.9,30.9l-2.9,13.5c-0.1,0.5-0.2,0.9-0.2,1.3c0,1.1,0.5,1.7,1.6,1.7c1.5,0,2.6-1.7,3.2-3.7h1.7
		c-2.3,6.5-5.8,7.3-8,7.3c-2.2,0-3.6-1.3-3.9-3.6c-1.2,1.8-3.1,3.6-5.9,3.6c-2.7,0-5.3-1.7-5.3-6.4c0-5.3,3.3-13.9,10.2-13.9
		c2.3,0,3.2,0.9,3.2,2V33l0.4-2.1H79.9z M66.2,44c0,3,1.3,3.1,2,3.1c1.1,0,2.8-1.2,3.3-3.5l1.9-8.9c0-0.5-0.4-1.5-1.6-1.5
		C68.4,33.2,66.2,40.3,66.2,44z"/>
	<path fill="#1E8BC3" d="M91.7,34.4c-1.4,0-2.5,1.7-3.1,3.6l-2.7,12.7h-5.7l4.2-19.8h5.7L89.7,33c1.7-1.9,3.4-2.2,4.6-2.2
		c2.5,0,4.4,1.3,4.4,4.5c0,3.2-1.9,8-1.9,10.2c0,1,0.4,1.7,1.6,1.7c1.7,0,2.5-1.4,3.3-3.5h1.7c-2.2,6.5-5.3,7.3-7.4,7.3
		c-3.4,0-4.7-2.2-4.7-4.5c0-2.7,1.8-7.6,1.8-10.1C93.1,35.1,92.6,34.4,91.7,34.4z"/>
	<path fill="#1E8BC3" d="M113.2,34.3c0-1-0.4-1.6-1.1-1.6c-2.5,0-5.1,7.2-5.1,11.6c0,2.7,1,3.3,2.9,3.3c3.1,0,5-1.7,7-4h1.3
		c-2.3,3.6-5.6,7.3-10.9,7.3c-3.7,0-6.2-1.8-6.2-6.3c0-4.6,2.6-14.1,10.6-14.1c3.5,0,4.4,1.8,4.4,3.6c0,1.9-1,2.9-2.1,2.9
		c-0.4,0-0.9-0.2-1.4-0.5C113.1,35.8,113.2,35,113.2,34.3z"/>
	<path fill="#1E8BC3" d="M124.7,47.2c1.5,0,3.4-1,4.7-2.1c-0.8,4.5-3.7,5.9-6.8,5.9c-3.7,0-6.1-1.8-6.1-6.3
		c0-4.6,2.6-14.1,10.7-14.1c3.5,0,4.4,1.8,4.4,3.8c0,4.6-4.4,8.1-9.1,8.4c0,0.4-0.1,0.8-0.1,1.2C122.2,46.4,123.3,47.2,124.7,47.2z
		 M127.4,32.7c-2,0-4,4.4-4.8,8.2c3.1-0.2,5.8-3.2,5.8-6.5C128.3,33.3,128.1,32.7,127.4,32.7z"/>
	<path fill="#52B3D9" d="M184.8,29.8c-0.7,0-1.3-0.2-1.8-0.8c1.1-0.6,1.8-2.1,1.8-3.4c0-1.4-0.8-2.7-2.9-2.7c-2.2,0-3.6,1.2-3.6,3.6
		c0,5.8,8.9,6.6,8.9,15.2c0,6.6-5.4,9.9-11.1,9.9c-4.5,0-8.4-2-8.4-6.8c0-4.3,3-6.5,5.8-6.5c1.4,0,3.4,0.6,3.5,2.6
		c-2.1,0-4.6,1-4.6,3.7c0,2,1.3,3.8,3.8,3.8c2.7,0,4.6-1.9,4.6-5.3c0-6.8-8.1-9.2-8.1-15c0-4.1,4-7.1,9.1-7.1c1.9,0,6.4,0.4,6.4,4.8
		C188.1,28.1,186.8,29.8,184.8,29.8z"/>
	<path fill="#52B3D9" d="M198.8,24.7l-1.3,6.3h2.4l-0.3,1.6h-2.4l-2.5,11.9c-0.1,0.5-0.2,0.9-0.2,1.3c0,1.1,0.5,1.5,1.6,1.5
		c1.5,0,3-1.5,3.6-3.5h1.7c-2.3,6.5-6.2,7.3-8.3,7.3c-2.4,0-4.2-1.4-4.2-4.7c0-0.8,0.1-1.6,0.3-2.6l2.4-11.1h-1.3l0.3-1.6h1.3
		l1.2-5.5L198.8,24.7z"/>
	<path fill="#52B3D9" d="M217.8,30.9L215,44.4c-0.1,0.5-0.2,0.9-0.2,1.3c0,1.1,0.5,1.5,1.6,1.5c1.5,0,2.6-1.5,3.2-3.5h1.7
		c-2.3,6.5-5.8,7.3-8,7.3c-2.3,0-3.7-1.3-3.9-3.8c-2,3.2-4.2,3.8-5.9,3.8c-2.4,0-4.2-1.4-4.2-4.7c0-0.8,0.1-1.6,0.3-2.6l2.7-12.7
		h5.7l-2.9,13.5c-0.1,0.4-0.1,0.8-0.1,1.1c0,0.9,0.3,1.6,1.2,1.6c1.5,0,2.6-1.5,3.2-3.5l2.7-12.7H217.8z"/>
	<path fill="#52B3D9" d="M240.3,23l-4.6,21.4c-0.1,0.5-0.2,0.9-0.2,1.3c0,1.1,0.5,1.5,1.6,1.5c1.5,0,2.6-1.5,3.2-3.5h1.7
		c-2.3,6.5-5.8,7.1-8,7.1c-2.1,0-3.6-1.2-3.9-3.4c-1.2,1.8-3,3.6-5.9,3.6c-2.7,0-5.3-1.7-5.3-6.4c0-5.3,3.3-13.9,10.2-13.9
		c2.3,0,3.2,0.9,3.2,2v0.2l1.9-9.1L240.3,23z M230.2,43.7l1.9-9.1c-0.1-0.5-0.4-1.4-1.6-1.4c-3.4,0-5.5,7.1-5.5,10.8
		c0,3,1.3,3.1,2,3.1c1.1,0,2.7-1.1,3.2-3.3V43.7z"/>
	<path fill="#52B3D9" d="M248.8,30.9L246,44.4c-0.1,0.5-0.2,0.9-0.2,1.3c0,1.1,0.5,1.5,1.6,1.5c1.5,0,3-1.5,3.6-3.5h1.7
		c-2.3,6.5-6.2,7.3-8.3,7.3c-2.4,0-4.2-1.4-4.2-4.7c0-0.8,0.1-1.6,0.3-2.6l2.7-12.7H248.8z M247,22.5c1.7,0,3.2,1.4,3.2,3.2
		c0,1.7-1.4,3.1-3.2,3.1c-1.7,0-3.1-1.4-3.1-3.1C243.9,23.9,245.3,22.5,247,22.5z"/>
	<path fill="#52B3D9" d="M278.5,29.7c0.5,10.3,0.9,11.8,0.9,14.4c0,5.1-3.7,6.8-7,6.8c-4.7,0-5.5-2.8-5.5-5.3c0-2.3,1.5-3.8,2.8-3.8
		c1.3,0,2.1,0.5,2.1,1.7c0,0.9-0.9,1.8-1.9,1.8c-0.4,0-0.9-0.1-1.1-0.5c0,1.9,0.8,3,2.3,3c1.7,0,2.5-0.9,2.5-3.7
		c0-2.2-0.4-3.4-0.9-10.8c-1.9,2.9-4.2,4.7-6.7,5.5c-0.6,7.4-4.5,12-9.4,12c-3.7,0-6.3-1.7-6.3-6.3c0-4.6,2.6-14.1,10.7-14.1
		c3.4,0,5,2.1,5.1,6.2c2-0.1,4.2-2.4,6.5-6.3L278.5,29.7z M262.8,39.1c-0.6-0.2-1-0.8-1-1.8c0-1.1,0.4-1.7,1.1-2.1
		c-0.1-1.7-0.5-2.3-1.5-2.3c-2.8,0-5.1,7.2-5.1,11.1c0,2.6,0.5,3.2,2,3.2C260.3,47.3,262.2,43.8,262.8,39.1z"/>
</g>
</svg>
