<?xml version="1.0" encoding="utf-8"?>
<!-- Generator: Adobe Illustrator 18.1.1, SVG Export Plug-In . SVG Version: 6.00 Build 0)  -->
<svg version="1.1" xmlns="http://www.w3.org/2000/svg" xmlns:xlink="http://www.w3.org/1999/xlink" x="0px" y="0px"
	 viewBox="0 0 146 146" enable-background="new 0 0 146 146" xml:space="preserve">
<g id="Layer_1" display="none">
	<rect display="inline" fill-rule="evenodd" clip-rule="evenodd" fill="#29ABE2" width="146" height="146"/>
</g>
<g id="Layer_2">
	<path fill="#FFFFFF" d="M118.2,42.6c0,0,0.1-0.2-0.1-0.3c-0.2-0.1-3.1-0.3-3.6-0.3c-0.5-0.1-0.7-0.2-1.2-0.2
		c-0.5,0.1-3,0.8-3.8,0.8c-0.8,0-5.9-0.1-6.8-0.1c-0.9,0-3.5-0.5-4.6-0.5c-1.1,0-2.6,1.3-3.4,1.3c-0.8,0.1-4.2,1.1-5,1
		c-0.8-0.1-0.9-0.2-1.5-0.4c-0.6-0.3-1.7-0.1-2.4-0.2c-0.7-0.1-2.1-0.4-3.2-0.4c-1.1,0-2.3,0.9-3,0.8c-0.7-0.1-1.2-0.7-1.3-1
		c-0.1-0.3-0.1-2.2,0.2-2.4c0.2-0.2,0.9,0.1,2.4-0.3c1.5-0.3,1.3-1.5,1.1-1.8c-0.2-0.4,0-0.2,0-0.4c0-0.2,0.1-0.2,0.2-0.4
		c0.1-0.2-0.1-0.4-0.1-0.4s0,0,0.2-0.2c0.2-0.2,0-0.8,0-1.1c0.1-0.2,0.1-0.1,0.3-0.2c0.2-0.1,0.5-0.4,0.5-0.7c0-0.3-1.3-1.3-1.4-1.6
		c-0.1-0.3,0.3-1,0.4-2c0-1-0.5-1.5-2.3-3c-1.7-1.5-6.6-2.2-8.8,0.3c-2.3,2.5-0.9,5.9-0.2,8.3c0.7,2.3,0.1,3.8,0.2,4
		c0,0.2-0.9,1.5-1.3,1.5c-0.4,0-1.5,0.6-1.5,0.6s-0.5-0.1-1.2-0.3c-0.7-0.2-2.9-0.2-5.1,0.4c-2.2,0.5-3.6,0.7-4.8,0.5
		c-1.2-0.2-3.8-0.1-4.9-0.4c-1.1-0.3-3.2-1.1-4.5-1.1c-1.2,0-4.9,0.5-6.3,0.7c-1.4,0.1-4.8,0.1-5.8,0.1c-0.9,0.1-2.1,0.3-3.5,0.3
		c-1.4,0-2.5-0.1-3.2,0.1c-0.7,0.2-1,0.2-1.4,0.2c-0.4,0-2.1,0.3-2.8,0.4c-0.7,0.1-1.5,0.2-1.9,0.3c-0.4,0.1-0.8,0-0.8,0.4
		c0,0.4,0.8,0.7,0.9,0.7c0.1,0.1,1.3,0,1.3,0s0,0,0.3,0.3c0.3,0.3,0.4,0.2,0.9,0.4c0.6,0.1,2.9,0.1,3.1,0.1c0.2,0,0.9,0.5,3.1,0.5
		c2.2,0,2-0.7,3.6-0.6c1.6,0.1,6.1,2.1,8.8,2.2c2.8,0.1,5.4-0.3,6.5-0.3c1.1,0,3.1,0.9,3.9,1.2c0.8,0.3,3.7,1.2,5,1.3
		c1.4,0.1,3.6,0.5,3.9,0.9c0.4,0.4,2.6,3.3,3,3.8c0.4,0.5,1.2,1.5,1.5,2.7c0.3,1.2,2.3,4.9,2.4,5.1c0.2,0.2,0,1.1,0.1,1.3
		c0.1,0.1,0.5,0.6,0.5,0.6l-0.4,2.3c0,0-0.1,0.1-0.2,0.2c-0.1,0-2,2.3-3,3.5c-1,1.2-2,4.6-2,4.6s-0.4,0.5-1,0.8
		c-0.6,0.3-2.2,2.1-2.3,2.2c-0.1,0.1-1.8,1.7-2,2c-0.2,0.4-2.2,2.5-2.6,3.1c-0.5,0.6-1.2,1.4-1.7,1.4c-0.5,0-0.8,0.8-1.1,1.3
		c-0.3,0.5-1.2,1-1.5,1.1c-0.2,0.1-0.8,0.5-1.1,0.8c-0.3,0.3-0.7,0.3-1.2,0.3c-0.5,0.1-0.6,0.5-0.9,0.9c-0.3,0.4-0.6,0.3-1.1,0.4
		c-0.5,0.1-0.9,0.5-1.7,1.1c-0.8,0.6-1.2,0.9-1.7,0.9c-0.5,0-3.7,2.3-4.9,3.2c-1.2,1-2.8,2.7-2.9,2.9c-0.1,0.2-0.3,0.2-0.6,0.2
		c-0.3,0.1-1.9,2.2-2.5,2.8c-0.7,0.6-0.1,0.8-0.1,0.8s-3.4,3.5-3.8,3.6c-0.4,0.1-1.4,1.6-1.6,1.8c-0.1,0.2-1.5,1.8-2.1,2
		c-0.6,0.2-0.5,0.6-0.7,0.9c-0.2,0.3,0.5,1.6,0.7,1.8c0.2,0.2,1.3,0.2,1.6,0.2c0.3,0,1.3-0.1,1.3-0.1s0.2-0.1,0.4,0
		c0.2,0.1,0.8-0.1,0.8-0.1s0.3,0.1,0.7,0.1c0.4,0,0.8,0,0.9,0c0.1,0,1.1,0.1,1.3,0c0.1-0.1,0.7,0.1,1.4,0.1c0.6,0,0.8-0.5,0.7-1.2
		c-0.1-0.7-0.9-0.6-1.1-0.8c-0.2-0.1-1.3-0.9-1.3-1c0-0.1,0.5-0.6,1.3-1.7c0.8-1.1,2.4-2.1,2.4-2.1s0.9,1,1.2,1.4
		c0.3,0.4,1.7,1.7,1.7,1.7s4.8-4.1,5.3-4.6c0.5-0.5,7.4-6.1,8.4-6.6c1-0.5,3.9-3.3,3.9-3.3s0.2,0.1,1.1-0.5c0.9-0.5,3.9-2.8,3.9-2.8
		s0.6,0.2,1.4-0.2c0.8-0.4,3.3-3.4,5.1-4.7c1.7-1.3,5.1-2.1,5.1-2.1s3.8,1.9,7.9,2.8c4.1,0.8,7.1,1.1,8.1,0.9c1-0.2,0.9,0.1,1.2,0.2
		c0.3,0.2,1.6,0,2.2,0.4c0.6,0.4,2.4,0.5,2.5,0.6c0.1,0.1,0.7,0.5,0.7,0.5s-0.4,0.1-0.7,0.3c-0.4,0.2,1.4,8.4,1.6,9.3
		c0.2,0.9,0.8,3.9,0.8,4.2c0,0.3,0.3,0.6,0.3,0.6s0.4,3.4,0.2,5.1c-0.2,1.8-0.6,2-0.5,3.3c0.1,1.3,1.2,1.6,2.9,1.5
		c1.7-0.1,4.3-1.1,5.3-1c1,0.2,3.8,0.2,4.1,0c0.3-0.2,1.1-0.1,2.1,0c1,0.1,1.3-0.4,1.2-0.8c-0.1-0.4-0.8-0.1-1.2-0.4
		c-0.4-0.4-1.6-0.3-2-0.5c-0.5-0.2-1.7-0.7-2.7-1c-0.9-0.4-2-0.5-3.3-2.4c-1.4-2-1.5-5-1.5-5s2.3-0.9,3.4-1.3c1.1-0.4,0-2.6-0.1-3.1
		c-0.1-0.5-0.2-2.6-0.3-2.9c-0.1-0.3-0.8-4.7-1.1-6.8c-0.3-2.1-0.4-4.3-1.2-5.6c-0.8-1.3-6.2-3-6.9-3.3c-0.7-0.3-1.4-0.9-3.5-1.7
		c-2.2-0.8-7-1.9-7.3-1.9s-1.8-0.4-1.5-1c0.3-0.6-0.2-1-0.5-1.4c-0.3-0.4-0.1-0.5-0.1-0.9c0-0.5-0.4-0.6-0.4-0.6s0.4-5.6,0.4-7
		c0.1-1.3,0.4-3.5,0.4-5.2c0-1.7-0.4-2.2-0.3-3.1c0.1-0.9-0.1-4-0.1-4.8c0-0.8,1-0.8,1.7-0.8c0.7,0,3.1-0.2,4.4-0.6
		c1.4-0.5,4.6-2.2,5.5-2.2c0.9-0.1,4,0.2,5.5,0c1.5-0.2,6.2-2.5,6.6-2.6c0.4-0.1,0.7,0.2,1.4,0.2c0.6,0,1.6-0.4,3.2-1
		c1.6-0.6,2.5-0.6,3.9-0.9c1.4-0.3,1.2-0.3,1.4-0.6C118.7,42.7,118.2,42.6,118.2,42.6z"/>
	
		<circle fill-rule="evenodd" clip-rule="evenodd" fill="none" stroke="#FFFFFF" stroke-width="3" stroke-miterlimit="10" cx="73" cy="72.8" r="70.3"/>
</g>
</svg>
